

Release info:

General
Format                                   : Matroska
Format version                           : Version 2
File size                                : 1.37 GiB
Duration                                 : 2h 4mn
Overall bit rate                         : 1 565 Kbps

Video
ID                                       : 1
Format                                   : MPEG-4 Visual
Format profile                           : Advanced Simple@L5
Format settings, BVOP                    : Yes
Format settings, QPel                    : No
Format settings, GMC                     : No warppoints
Format settings, Matrix                  : Default (H.263)
Codec ID                                 : V_MS/VFW/FOURCC / XVID
Codec ID/Hint                            : XviD
Duration                                 : 2h 4mn
Bit rate                                 : 1 406 Kbps
Width                                    : 720 pixels
Height                                   : 336 pixels
Display aspect ratio                     : 2.143
Frame rate mode                          : Constant
Frame rate                               : 29.970 fps
Color space                              : YUV
Chroma subsampling                       : 4:2:0
Bit depth                                : 8 bits
Scan type                                : Progressive
Compression mode                         : Lossy
Bits/(Pixel*Frame)                       : 0.194
Stream size                              : 1.23 GiB (90%)
Title                                    : Jack Reacher 2012
Writing library                          : XviD 64
Language                                 : English
Default                                  : Yes
Forced                                   : No

Audio
ID                                       : 2
Format                                   : MPEG Audio
Format version                           : Version 1
Format profile                           : Layer 3
Muxing mode                              : Header stripping
Codec ID                                 : A_MPEG/L3
Codec ID/Hint                            : MP3
Duration                                 : 2h 4mn
Bit rate mode                            : Constant
Bit rate                                 : 128 Kbps
Channel(s)                               : 2 channels
Sampling rate                            : 48.0 KHz
Compression mode                         : Lossy
Stream size                              : 114 MiB (8%)
Title                                    : Jack Reacher 2012
Writing library                          : LAME3.98.4
Language                                 : English
Default                                  : Yes
Forced                                   : No



Source:
credit to original movie ripper OCW (Thanks)

IMDB Info:

A homicide investigator digs deeper into a case involving a trained military sniper who shot five random victims.

Director: Christopher McQuarrie
Writers: Christopher McQuarrie (screenplay), Lee Child (book)
Stars: Tom Cruise, Rosamund Pike and Richard Jenkins 

Genres: Action | Crime | Thriller[
 
http://www.imdb.com/title/tt0790724/

Screen Shot:
 
http://hostpicturefree.com/images/vlcsnaeee.png 
http://hostpicturefree.com/images/vlcsnaflf.png 
http://hostpicturefree.com/images/vlcsnarer.png 
http://hostpicturefree.com/images/vlcsnafdf.png 
http://hostpicturefree.com/images/vlcsnabwb.png 
http://hostpicturefree.com/images/vlcsnakwk.png